<svg width="158" height="42" viewBox="0 0 158 42" fill="none" xmlns="http://www.w3.org/2000/svg">
<path d="M10.738 9.99146C14.1352 9.99146 16.6506 10.9811 18.2843 12.9604C19.918 14.9398 20.7345 17.6118 20.7336 20.9765C20.7336 22.5599 20.544 24.0197 20.1646 25.3561C19.7853 26.6924 19.1914 27.8386 18.3829 28.7948C17.5743 29.7523 16.5435 30.5028 15.2904 31.0463C14.0372 31.5899 12.5198 31.8621 10.738 31.863C9.89408 31.857 9.05132 31.7993 8.21447 31.6902C7.30448 31.5774 6.40874 31.37 5.5418 31.0713V39.385C5.5418 41.0673 4.71727 41.9085 3.06818 41.9085H0V12.1688C0.966057 11.7577 1.95807 11.4105 2.96962 11.1294C4.02521 10.8307 5.19641 10.5668 6.48325 10.3377C7.88853 10.0972 9.31232 9.9813 10.738 9.99146ZM10.738 27.1129C11.5299 27.0805 12.2143 26.8908 12.7911 26.5439C13.3641 26.2015 13.8544 25.7367 14.2267 25.1826C14.6166 24.5959 14.8934 23.9415 15.0427 23.253C15.2102 22.5058 15.2933 21.7422 15.2904 20.9765C15.2919 20.2071 15.2423 19.4385 15.1419 18.6757C15.058 17.9804 14.8395 17.308 14.4987 16.6962C14.1684 16.1191 13.6901 15.6408 13.1131 15.3105C12.5191 14.9645 11.7275 14.7915 10.738 14.7915C8.56199 14.7915 6.82992 15.0554 5.5418 15.5832V25.925C6.23472 26.1891 7.00272 26.453 7.84582 26.7167C8.68892 26.9804 9.65298 27.1125 10.738 27.1129Z" fill="#0000FF"/>
<path d="M34.3939 9.64522C35.6078 9.63769 36.819 9.76194 38.0061 10.0158C39.1274 10.2637 40.117 10.6761 40.9751 11.2529C41.8398 11.8391 42.5455 12.6308 43.0288 13.5569C43.5408 14.5135 43.7968 15.7176 43.7968 17.1691V29.886C42.9973 30.3852 42.1524 30.8078 41.2733 31.1481C40.2757 31.5256 39.2498 31.8235 38.2051 32.039C37.0497 32.286 35.7633 32.4098 34.3459 32.4102C32.696 32.4102 31.3268 32.2608 30.2383 31.9622C29.1499 31.6635 28.2014 31.2345 27.3929 30.6751C26.5848 30.1153 25.9335 29.3567 25.4389 28.3993C24.9444 27.4418 24.697 26.2706 24.6965 24.8856C24.6965 22.7416 25.3892 21.1416 26.7746 20.0856C28.16 19.0296 30.0982 18.3614 32.5891 18.0811C35.0795 17.8012 37.0177 17.5951 38.4035 17.4629V16.7205C38.4035 16.2938 38.1149 15.8898 37.5376 15.5083C36.9603 15.1269 35.9124 14.9364 34.3939 14.9368C33.1075 14.9709 31.9858 15.0699 31.0287 15.2337C30.0717 15.3976 29.279 15.5973 28.6505 15.8328C27.8586 16.0969 27.2813 16.0721 26.9186 15.7585C26.556 15.4449 26.3746 14.9577 26.3746 14.2968V11.0328C27.1 10.8028 27.8422 10.5967 28.6012 10.4145C29.3603 10.2323 30.1923 10.0674 31.0972 9.91978C32.006 9.7696 33.1049 9.67807 34.3939 9.64522ZM38.3523 22.0652C36.9669 22.1978 35.5732 22.3045 34.1712 22.3852C32.7691 22.4658 31.6722 22.738 30.8803 23.2018C30.0884 23.6639 29.7091 24.3071 29.7423 25.1314C29.7423 25.8239 30.105 26.4095 30.8303 26.8882C31.5557 27.3669 32.7672 27.6072 34.4649 27.6089C36.1635 27.6089 37.4582 27.4595 38.3491 27.1609L38.3523 22.0652Z" fill="#0000FF"/>
<path d="M49.2849 16.7211C49.2849 15.9958 49.4662 15.2369 49.8289 14.4446C50.1916 13.6523 50.7441 12.9269 51.4865 12.2686C52.2289 11.6094 53.1691 11.0652 54.307 10.6359C55.4449 10.2067 56.7889 9.99338 58.339 9.99594C59.2406 9.99455 60.1413 10.0523 61.0354 10.1687C61.8103 10.262 62.5732 10.4362 63.3119 10.6884C63.8902 10.8869 64.4394 11.1615 64.9452 11.5051C65.3897 11.8187 65.538 12.3053 65.39 12.9649C65.2419 13.6245 65.1017 14.1607 64.9695 14.5732C64.8376 14.9863 64.6397 15.5552 64.3755 16.2801C63.8145 16.1487 63.2538 16.025 62.6936 15.9089C62.1334 15.7929 61.5064 15.6939 60.8126 15.612C60.0735 15.5272 59.33 15.486 58.5861 15.4885C57.827 15.4885 57.2083 15.5463 56.7301 15.6619C56.2518 15.7775 55.8724 15.9341 55.5921 16.1317C55.3109 16.3296 55.113 16.544 54.9982 16.7749C54.8913 16.9718 54.8319 17.1909 54.8248 17.4149V29.5385C54.8248 30.8915 54.1321 31.5677 52.7467 31.5673H49.283L49.2849 16.7211Z" fill="#0000FF"/>
<path d="M76.105 9.64522C77.3189 9.63769 78.53 9.76194 79.7171 10.0158C80.8376 10.2637 81.8272 10.6761 82.6861 11.2529C83.5506 11.8392 84.2561 12.6308 84.7393 13.5569C85.2513 14.5135 85.5073 15.7176 85.5073 17.1691V29.886C84.7077 30.3851 83.8627 30.8077 82.9837 31.1481C81.9861 31.5256 80.9602 31.8235 79.9155 32.039C78.7601 32.286 77.4735 32.4098 76.0557 32.4102C74.4057 32.4102 73.0368 32.2608 71.9488 31.9622C70.8608 31.6635 69.9123 31.2345 69.1033 30.6751C68.2926 30.1153 67.6411 29.3567 67.1487 28.3993C66.6563 27.4418 66.4089 26.2706 66.4063 24.8856C66.4063 22.7416 67.0992 21.1416 68.4851 20.0856C69.8709 19.0296 71.8088 18.3614 74.2989 18.0811C76.7898 17.8012 78.7279 17.5951 80.1133 17.4629V16.7205C80.1133 16.2938 79.8247 15.8898 79.2474 15.5083C78.6701 15.1269 77.6228 14.937 76.1056 14.9387C74.8183 14.9728 73.6966 15.0718 72.7404 15.2357C71.7843 15.3995 70.9915 15.5985 70.3622 15.8328C69.5707 16.0969 68.9934 16.0721 68.6303 15.7585C68.2672 15.4449 68.0857 14.9583 68.0857 14.2987V11.0347C68.811 10.8047 69.5532 10.5986 70.3123 10.4164C71.0713 10.2342 71.9033 10.0693 72.8083 9.92171C73.7192 9.77024 74.8181 9.67807 76.105 9.64522ZM80.0634 22.0652C78.678 22.1978 77.2843 22.3045 75.8822 22.3852C74.4802 22.4658 73.3832 22.738 72.5913 23.2018C71.7998 23.6639 71.4205 24.3071 71.4534 25.1314C71.4534 25.8239 71.8161 26.4095 72.5414 26.8882C73.2667 27.3669 74.4791 27.6061 76.1786 27.6057C77.8771 27.6057 79.1719 27.4563 80.0627 27.1577L80.0634 22.0652Z" fill="#0000FF"/>
<path d="M132.466 26.222C133.125 26.0573 133.628 26.082 133.975 26.2962C134.322 26.5104 134.578 26.997 134.743 27.7561L135.238 30.5273C134.494 30.797 133.734 31.0199 132.962 31.1948C132.17 31.3766 131.312 31.5334 130.388 31.6652C129.454 31.7975 128.511 31.8636 127.568 31.863C124.235 31.863 121.703 30.9145 119.972 29.0175C118.241 27.1205 117.375 24.4897 117.374 21.125C117.374 19.5092 117.564 18.0158 117.943 16.6449C118.323 15.274 118.925 14.0947 119.749 13.107C120.574 12.1171 121.63 11.3419 122.917 10.7812C124.204 10.2206 125.754 9.94003 127.568 9.93961C128.786 9.94747 130.002 10.0467 131.205 10.2366C132.529 10.4401 133.83 10.7717 135.09 11.2267V13.948C135.09 14.6413 134.9 15.1443 134.52 15.4571C134.14 15.7698 133.637 15.8276 133.011 15.6305C132.813 15.5644 132.508 15.4818 132.096 15.3828C131.684 15.2839 131.222 15.1849 130.71 15.0859C130.198 14.9873 129.662 14.8967 129.102 14.8139C128.578 14.7346 128.048 14.6933 127.518 14.6904C126.628 14.7236 125.885 14.9133 125.292 15.2593C124.699 15.6041 124.198 16.0872 123.832 16.6673C123.442 17.2875 123.174 17.9759 123.04 18.6962C122.888 19.4952 122.814 20.3071 122.818 21.1205C122.815 21.8517 122.889 22.5811 123.04 23.2965C123.173 23.9517 123.434 24.574 123.808 25.1276C124.178 25.6611 124.681 26.0878 125.268 26.3647C125.878 26.6634 126.628 26.8127 127.52 26.8127C128.431 26.811 129.342 26.7365 130.242 26.59C131.163 26.4436 131.904 26.321 132.466 26.222Z" fill="#0000FF"/>
<path d="M148.597 9.64522C149.811 9.63769 151.022 9.76194 152.209 10.0158C153.331 10.2637 154.32 10.6761 155.178 11.2529C156.043 11.8391 156.749 12.6308 157.232 13.5569C157.744 14.5135 158 15.7176 158 17.1691V29.886C157.2 30.3852 156.356 30.8078 155.476 31.1481C154.479 31.5256 153.453 31.8235 152.408 32.039C151.254 32.286 149.967 32.4098 148.549 32.4102C146.899 32.4102 145.53 32.2608 144.441 31.9622C143.353 31.6635 142.404 31.2345 141.595 30.6751C140.784 30.1153 140.133 29.3567 139.64 28.3993C139.148 27.4418 138.9 26.2706 138.898 24.8856C138.898 22.7416 139.59 21.1416 140.976 20.0856C142.361 19.0296 144.299 18.3614 146.79 18.0811C149.28 17.8012 151.219 17.5951 152.605 17.4629V16.7205C152.605 16.2938 152.316 15.8898 151.739 15.5083C151.162 15.1269 150.114 14.937 148.596 14.9387C147.31 14.9728 146.188 15.0718 145.231 15.2357C144.274 15.3995 143.483 15.5975 142.856 15.8296C142.065 16.0937 141.487 16.069 141.124 15.7553C140.761 15.4417 140.58 14.9551 140.58 14.2955V11.0315C141.306 10.8015 142.048 10.5954 142.807 10.4132C143.566 10.231 144.399 10.0661 145.306 9.9185C146.214 9.76917 147.311 9.67807 148.597 9.64522ZM152.555 22.0652C151.17 22.1978 149.776 22.3045 148.374 22.3852C146.973 22.4658 145.876 22.738 145.083 23.2018C144.292 23.6639 143.913 24.3071 143.945 25.1314C143.945 25.8239 144.308 26.4095 145.033 26.8882C145.759 27.3669 146.971 27.6061 148.671 27.6057C150.369 27.6057 151.664 27.4563 152.555 27.1577L152.555 22.0652Z" fill="#0000FF"/>
<path d="M95.5515 3.58308C95.4126 3.35796 95.2041 3.18427 94.9576 3.08835C94.7278 3.00643 94.4818 2.98096 94.2401 3.01411C93.9931 3.04739 93.7864 3.07811 93.6219 3.11331L90.2567 3.905V9.99145H95.7992V4.79525C95.7992 4.23546 95.7166 3.8314 95.5515 3.58308Z" fill="#0000FF"/>
<path d="M102.306 26.6425C102.026 26.3626 101.539 26.2883 100.846 26.4198C100.285 26.5187 99.8317 26.593 99.4856 26.6425C99.1333 26.6923 98.7778 26.7171 98.4219 26.7167C97.4645 26.7167 96.7882 26.593 96.3931 26.3455C95.998 26.098 95.8 25.6287 95.7992 24.9375V15.3848H99.9592C101.246 15.3848 101.889 14.6921 101.889 13.3067V9.99146H95.8024V15.3035H90.2599V25.2345C90.2599 26.4552 90.4827 27.486 90.9281 28.327C91.34 29.1283 91.9229 29.8295 92.6356 30.3807C93.3356 30.9125 94.1345 31.2993 94.9857 31.5187C95.7994 31.7409 96.6383 31.8573 97.4818 31.8649C98.7349 31.8649 99.84 31.7248 100.797 31.4444C101.754 31.1641 102.397 30.8919 102.727 30.6278V28.1042C102.727 27.41 102.586 26.9228 102.306 26.6425Z" fill="#0000FF"/>
<path d="M112.672 3.60866C112.672 4.63267 112.359 5.43268 111.732 6.00868C111.105 6.58469 110.33 6.87269 109.406 6.87269C108.573 6.88215 107.767 6.57233 107.155 6.00676C106.511 5.42948 106.19 4.62947 106.19 3.60674C106.19 2.65057 106.512 1.88257 107.155 1.30272C107.767 0.737159 108.573 0.427335 109.406 0.436795C110.33 0.436795 111.105 0.725439 111.732 1.30272C112.359 1.88001 112.673 2.64866 112.672 3.60866ZM113.167 26.2226C114.322 26.1902 114.899 26.8005 114.899 28.0537V31.5667H111.187C109.834 31.5667 108.746 31.1873 107.923 30.4287C107.1 29.6701 106.688 28.2681 106.686 26.2226V9.99208H110.249C111.568 9.99208 112.228 10.6353 112.228 11.9217V25.4802C112.228 25.7443 112.294 25.934 112.427 26.0492C112.555 26.165 112.739 26.2226 112.971 26.2226H113.167Z" fill="#0000FF"/>
</svg>
